<?xml version="1.0" encoding="iso-8859-1"?>
<!-- Generator: Adobe Illustrator 19.0.0, SVG Export Plug-In . SVG Version: 6.00 Build 0)  -->
<svg version="1.1" id="Capa_1" xmlns="http://www.w3.org/2000/svg" xmlns:xlink="http://www.w3.org/1999/xlink" x="0px" y="0px"
	 viewBox="0 0 480 480" style="enable-background:new 0 0 480 480;" xml:space="preserve">
<g>
	<g>
		<path d="M456,128h-64h-56V72V8c0-4.424-3.584-8-8-8h-64c-4.416,0-8,3.576-8,8v64v56h-56h-64H72H8c-4.416,0-8,3.576-8,8v64
			c0,4.424,3.584,8,8,8h56v56v64v64v64c0,4.424,3.584,8,8,8h64c4.416,0,8-3.576,8-8v-64v-64v-64v-56h56h56v56v64
			c0,4.424,3.584,8,8,8h64c4.416,0,8-3.576,8-8v-64v-56h56h64c4.416,0,8-3.576,8-8v-64C464,131.576,460.416,128,456,128z M64,192H16
			v-48h48V192z M128,448H80v-48h48V448z M128,384H80v-48h48V384z M128,320H80v-48h48V320z M128,256H80v-48h48V256z M128,192H80v-48
			h48V192z M192,192h-48v-48h48V192z M256,192h-48v-48h48V192z M320,320h-48v-48h48V320z M320,256h-48v-48h48V256z M320,192h-48v-48
			h48V192z M320,128h-48V80h48V128z M320,64h-48V16h48V64z M384,192h-48v-48h48V192z M448,192h-48v-48h48V192z"/>
	</g>
</g>
<g>
	<g>
		<rect x="192" y="464" width="16" height="16"/>
	</g>
</g>
<g>
	<g>
		<rect x="160" y="464" width="16" height="16"/>
	</g>
</g>
<g>
	<g>
		<rect x="224" y="464" width="16" height="16"/>
	</g>
</g>
<g>
	<g>
		<path d="M443.712,264c-9.696,0-18.808,3.776-25.656,10.624l-15.712,15.72l-112,112c-0.08,0.08-0.104,0.192-0.184,0.272
			c-0.592,0.64-1.088,1.368-1.456,2.184c-0.04,0.096-0.104,0.176-0.144,0.264c-0.016,0.04-0.048,0.08-0.064,0.12l-24,64
			c-1.104,2.936-0.384,6.248,1.832,8.472C267.872,479.184,269.92,480,272,480c0.944,0,1.896-0.168,2.808-0.504l64-24
			c0.04-0.016,0.072-0.048,0.12-0.064c0.104-0.04,0.184-0.104,0.288-0.152c0.816-0.36,1.528-0.856,2.168-1.44
			c0.08-0.08,0.192-0.104,0.272-0.184l112-112l15.712-15.72C476.224,319.088,480,309.968,480,300.28
			C480,280.272,463.72,264,443.712,264z M285.672,458.328l13.456-35.88l22.432,22.432L285.672,458.328z M336,436.688L307.312,408
			L408,307.312L436.688,336L336,436.688z M458.056,314.624L448,324.688L419.312,296l10.056-10.064
			c3.832-3.824,8.928-5.936,14.344-5.936c11.184,0,20.288,9.104,20.288,20.28C464,305.696,461.888,310.792,458.056,314.624z"/>
	</g>
</g>
<g>
</g>
<g>
</g>
<g>
</g>
<g>
</g>
<g>
</g>
<g>
</g>
<g>
</g>
<g>
</g>
<g>
</g>
<g>
</g>
<g>
</g>
<g>
</g>
<g>
</g>
<g>
</g>
<g>
</g>
</svg>
